<svg width="58" height="68" viewBox="0 0 58 68" fill="none" xmlns="http://www.w3.org/2000/svg">
<path d="M58 17.256V41.2666C58 50.7964 50.3481 58.5226 40.91 58.5226H39.1814L30.3541 67.4298C30.0083 67.7789 29.5301 68 29 68C28.5102 68 28.0666 67.8196 27.7266 67.5171L27.5768 67.3658L27.571 67.36L18.8186 58.5226H17.0842C7.6519 58.5226 0 50.7964 0 41.2666V17.256C0 7.72622 7.6519 0 17.09 0H40.91C50.3481 0 58 7.72622 58 17.256Z" fill="#FFD666"/>
<path d="M12.9319 33.2626C11.2494 33.2626 10.2904 35.1984 11.2667 36.5962C15.0624 42.0411 21.3388 45.5911 28.4306 45.5911C35.5225 45.5911 41.7931 42.0353 45.5889 36.5962C46.5651 35.1984 45.6061 33.2626 43.9236 33.2626H12.9319Z" fill="white"/>
<path d="M22.7861 25.0213H12.6335V19.8513C12.6335 16.9973 14.9075 14.6813 17.7098 14.6813C20.5121 14.6813 22.7861 16.9973 22.7861 19.8513V25.0213Z" fill="white"/>
<path d="M44.2277 25.0213H34.0752V19.8513C34.0752 16.9973 36.3492 14.6813 39.1515 14.6813C41.9537 14.6813 44.2277 16.9973 44.2277 19.8513V25.0213Z" fill="white"/>
</svg>
